#!OML:ASF H:\MichaelJackson\Top Level 1\Subject 1\Session 1\male.ASF
:FULLY-SPECIFIED
:DEGREES
404
root 16.6321 9.52844 -28.1686 -155.261 77.988 -151.836
lowerback 21.2598 4.99621 1.8132
upperback 6.43451 7.40216 -0.267792
thorax -4.52815 3.85679 -3.12479
lowerneck -8.08035 -11.4468 -0.618274
upperneck 12.6359 -16.5068 9.03009
head 5.98481 -7.37042 1.59741
rclavicle 1.27222e-014 -1.78906e-014
rhumerus 26.2471 17.1284 -79.7395
rradius 133.041
rwrist -37.3468
rhand -27.0555 -20.7848
rfingers 7.12502
rthumb -0.47369 -50.764
lclavicle 1.27222e-014 -1.78906e-014
lhumerus -57.9719 -7.57151 83.1497
lradius 55.7976
lwrist 22.6155
lhand -28.0463 9.20122
lfingers 7.12502
lthumb -1.43062 39.1762
rfemur -89.2452 -0.913734 25.9069
rtibia 108.677
rfoot -9.95721 9.83972
rtoes 15.8148
lfemur -3.32839 -6.58635 8.30879
ltibia 106.514
lfoot -20.3617 -52.3623
ltoes 34.3811
405
root 16.6512 9.59899 -28.1773 -155.071 78.3704 -151.783
lowerback 20.7453 4.91878 1.75429
upperback 5.91269 7.20795 -0.734441
thorax -4.78252 3.73093 -3.52282
lowerneck -8.15706 -11.534 -0.642695
upperneck 11.5047 -16.5841 9.34719
head 5.67651 -7.45101 1.71177
rclavicle -2.38542e-015 7.95139e-016
rhumerus 27.3901 16.8384 -79.2091
rradius 133.083
rwrist -37.3546
rhand -27.2851 -20.7948
rfingers 7.12502
rthumb -0.695469 -50.7734
lclavicle -2.38542e-015 7.95139e-016
lhumerus -57.5212 -7.72358 82.8849
lradius 54.9393
lwrist 22.6258
lhand -27.3704 9.31553
lfingers 7.12502
lthumb -0.777857 39.2939
rfemur -88.9378 -0.800516 26.4122
rtibia 108.383
rfoot -9.5571 8.51606
rtoes 16.6858
lfemur -3.08575 -6.00915 8.04764
ltibia 105.871
lfoot -20.0997 -52.2246
ltoes 34.4904
406
root 16.6692 9.67178 -28.1825 -155.269 78.7541 -152.13
lowerback 20.2382 4.86942 1.60996
upperback 5.40802 7.03825 -1.21158
thorax -5.02927 3.61953 -3.89132
lowerneck -8.22791 -11.6381 -0.63112
upperneck 10.4031 -16.6821 9.68385
head 5.37876 -7.53558 1.82521
rclavicle 2.50469e-014 -2.70347e-014
rhumerus 28.4372 16.5042 -78.6805
rradius 133.155
rwrist -37.5294
rhand -27.36 -20.9776
rfingers 7.12502
rthumb -0.767794 -50.9559
lclavicle 2.50469e-014 -2.70347e-014
lhumerus -56.9309 -7.95838 82.6219
lradius 54.0729
lwrist 22.5236
lhand -26.6759 9.3454
lfingers 7.12502
lthumb -0.107079 39.3251
rfemur -88.6448 -0.744549 27.0005
rtibia 108.091
rfoot -9.10366 6.80946
rtoes 17.9114
lfemur -2.83833 -5.47336 7.70454
ltibia 105.169
lfoot -19.7404 -52.1561
ltoes 34.8093
407
root 16.6867 9.74571 -28.1848 -155.749 79.1314 -152.778
lowerback 19.7159 4.83354 1.40402
upperback 4.91858 6.87918 -1.69621
thorax -5.25668 3.51644 -4.23468
lowerneck -8.28588 -11.7437 -0.584262
upperneck 9.34633 -16.7793 10.0257
head 5.09247 -7.61495 1.93557
rclavicle 1.36167e-013 -6.67916e-014
rhumerus 29.4089 16.1707 -78.1715
rradius 133.223
rwrist -37.8089
rhand -27.2959 -21.3165
rfingers 7.12502
rthumb -0.705925 -51.2951
lclavicle 1.36167e-013 -6.67916e-014
lhumerus -56.2442 -8.21597 82.3314
lradius 53.2578
lwrist 22.2614
lhand -25.995 9.25757
lfingers 7.12502
lthumb 0.550541 39.2366
rfemur -88.3538 -0.743444 27.6839
rtibia 107.783
rfoot -8.67521 4.77927
rtoes 19.4018
lfemur -2.57235 -4.98262 7.31194
ltibia 104.395
lfoot -19.3322 -52.1981
ltoes 35.3138
408
root 16.7038 9.82019 -28.1855 -156.536 79.4977 -153.755
lowerback 19.1681 4.80042 1.15455
upperback 4.44246 6.72094 -2.18795
thorax -5.45967 3.41717 -4.55932
lowerneck -8.33493 -11.8449 -0.527392
upperneck 8.35719 -16.8677 10.3653
head 4.82589 -7.6859 2.04387
rclavicle -4.85035e-014 -1.59028e-015
rhumerus 30.3287 15.8407 -77.7133
rradius 133.282
rwrist -38.164
rhand -27.1011 -21.8242
rfingers 7.12502
rthumb -0.517769 -51.8033
lclavicle -4.85035e-014 -1.59028e-015
lhumerus -55.4934 -8.45063 82.007
lradius 52.531
lwrist 21.7927
lhand -25.3998 9.02005
lfingers 7.12502
lthumb 1.1254 38.9968
rfemur -88.0574 -0.812793 28.419
rtibia 107.449
rfoot -8.36172 2.57327
rtoes 21.2421
lfemur -2.28373 -4.54086 6.86311
ltibia 103.547
lfoot -18.9117 -52.3454
ltoes 35.9678
409
root 16.7206 9.89451 -28.1852 -157.486 79.8394 -154.916
lowerback 18.5861 4.75955 0.896493
upperback 3.97983 6.55776 -2.67505
thorax -5.63111 3.31881 -4.86999
lowerneck -8.37998 -11.9359 -0.466159
upperneck 7.45307 -16.9397 10.6779
head 4.58249 -7.74577 2.14342
rclavicle 7.31528e-014 -1.27222e-014
rhumerus 31.1964 15.5439 -77.2974
rradius 133.29
rwrist -38.5371
rhand -26.8011 -22.4118
rfingers 7.12502
rthumb -0.227957 -52.3914
lclavicle 7.31528e-014 -1.27222e-014
lhumerus -54.7074 -8.62269 81.6454
lradius 51.9269
lwrist 21.1186
lhand -24.9522 8.64108
lfingers 7.12502
lthumb 1.55771 38.6151
rfemur -87.7355 -0.938575 29.179
rtibia 107.07
rfoot -8.24907 0.349556
rtoes 23.2722
lfemur -1.98248 -4.13622 6.41427
ltibia 102.636
lfoot -18.4845 -52.6067
ltoes 36.7474
410
root 16.7372 9.96857 -28.1852 -158.487 80.1457 -156.132
lowerback 17.9753 4.69844 0.662303
upperback 3.5344 6.38072 -3.13846
thorax -5.76919 3.21648 -5.16297
lowerneck -8.42394 -12.0076 -0.428148
upperneck 6.65451 -16.9835 10.9445
head 4.36842 -7.78969 2.23263
rclavicle 5.40694e-014 -1.11319e-014
rhumerus 32.0511 15.3152 -76.9441
rradius 133.252
rwrist -38.8965
rhand -26.52 -22.9756
rfingers 7.12502
rthumb 0.0435042 -52.9553
lclavicle 5.40694e-014 -1.11319e-014
lhumerus -53.9189 -8.68836 81.2618
lradius 51.471
lwrist 20.2731
lhand -24.6587 8.16763
lfingers 7.12502
lthumb 1.84117 38.1394
rfemur -87.3524 -1.11445 29.8834
rtibia 106.643
rfoot -8.3922 -1.63594
rtoes 25.4266
lfemur -1.65488 -3.76195 5.99332
ltibia 101.674
lfoot -18.1299 -52.9409
ltoes 37.535
411
root 16.7533 10.0419 -28.1864 -159.407 80.4077 -157.256
lowerback 17.3456 4.61126 0.486215
upperback 3.1083 6.18856 -3.56241
thorax -5.87534 3.10855 -5.44142
lowerneck -8.46771 -12.0592 -0.428409
upperneck 5.96999 -16.998 11.1441
head 4.18515 -7.81829 2.30711
rclavicle 7.55382e-015 1.43125e-014
rhumerus 32.8854 15.17 -76.6307
rradius 133.15
rwrist -39.2203
rhand -26.3227 -23.4408
rfingers 7.12502
rthumb 0.234046 -53.4204
lclavicle 7.55382e-015 1.43125e-014
lhumerus -53.1506 -8.64487 80.8912
lradius 51.1721
lwrist 19.3419
lhand -24.5604 7.67812
lfingers 7.12502
lthumb 1.93616 37.6491
rfemur -86.8824 -1.32161 30.4827
rtibia 106.156
rfoot -8.78485 -3.24014
rtoes 27.2605
lfemur -1.30661 -3.41139 5.6308
ltibia 100.69
lfoot -17.9166 -53.3067
ltoes 38.2299
412
root 16.7688 10.1153 -28.1888 -160.13 80.6256 -158.15
lowerback 16.718 4.50169 0.38907
upperback 2.70707 5.98914 -3.93469
thorax -5.95364 2.99795 -5.70764
lowerneck -8.51964 -12.0943 -0.474433
upperneck 5.40592 -16.9904 11.2671
head 4.03577 -7.83491 2.36374
rclavicle 2.70347e-014 -1.11319e-014
rhumerus 33.6981 15.1094 -76.3667
rradius 133.007
rwrist -39.4794
rhand -26.2167 -23.8125
rfingers 7.12502
rthumb 0.336429 -53.792
lclavicle 2.70347e-014 -1.11319e-014
lhumerus -52.4123 -8.50481 80.5609
lradius 51.0355
lwrist 18.4376
lhand -24.6749 7.21415
lfingers 7.12502
lthumb 1.82559 37.1861
rfemur -86.3126 -1.53214 30.9314
rtibia 105.616
rfoot -9.33933 -4.36719
rtoes 28.704
lfemur -0.935702 -3.07594 5.3487
ltibia 99.7096
lfoot -17.8332 -53.6416
ltoes 38.7927
413
root 16.7834 10.188 -28.1923 -160.653 80.7983 -158.788
lowerback 16.1089 4.37168 0.365571
upperback 2.33962 5.78294 -4.24837
thorax -6.00514 2.88467 -5.95264
lowerneck -8.58653 -12.1148 -0.566683
upperneck 4.95669 -16.9644 11.3112
head 3.91943 -7.84136 2.40127
rclavicle 1.39149e-014 -3.49861e-014
rhumerus 34.4706 15.1349 -76.0963
rradius 132.811
rwrist -39.6598
rhand -26.2159 -24.0365
rfingers 7.12502
rthumb 0.33722 -54.016
lclavicle 1.39149e-014 -3.49861e-014
lhumerus -51.7082 -8.29176 80.3003
lradius 51.0635
lwrist 17.6948
lhand -24.9736 6.832
lfingers 7.12502
lthumb 1.53703 36.8062
rfemur -85.6581 -1.725 31.1958
rtibia 105.042
rfoot -9.91529 -4.99013
rtoes 29.5417
lfemur -0.553586 -2.73773 5.16855
ltibia 98.7686
lfoot -17.911 -53.9023
ltoes 39.1424
414
root 16.7967 10.262 -28.1964 -161.075 80.9344 -159.258
lowerback 15.5362 4.22625 0.393723
upperback 2.01171 5.57111 -4.50551
thorax -6.03568 2.76938 -6.16808
lowerneck -8.67426 -12.1236 -0.700825
upperneck 4.611 -16.9249 11.2812
head 3.83381 -7.83986 2.42005
rclavicle -1.30005e-013 1.43125e-014
rhumerus 35.2108 15.2493 -75.8326
rradius 132.577
rwrist -39.7511
rhand -26.342 -24.0809
rfingers 7.12502
rthumb 0.215389 -54.0605
lclavicle -1.30005e-013 1.43125e-014
lhumerus -51.0375 -8.03251 80.1342
lradius 51.2468
lwrist 17.2101
lhand -25.4192 6.57827
lfingers 7.12502
lthumb 1.10674 36.5551
rfemur -84.9291 -1.88966 31.288
rtibia 104.438
rfoot -10.4411 -5.21908
rtoes 30.1174
lfemur -0.166919 -2.44218 5.01196
ltibia 97.8941
lfoot -18.1388 -53.9771
ltoes 39.2542
415
root 16.808 10.3363 -28.2009 -161.458 81.0408 -159.607
lowerback 15.0146 4.06982 0.457303
upperback 1.72681 5.35534 -4.71369
thorax -6.05057 2.65303 -6.35453
lowerneck -8.77304 -12.1231 -0.855615
upperneck 4.34634 -16.8756 11.1915
head 3.77021 -7.83238 2.42232
rclavicle -2.10712e-014 -7.95139e-015
rhumerus 35.8983 15.4226 -75.5746
rradius 132.326
rwrist -39.7386
rhand -26.4667 -24.1009
rfingers 7.12502
rthumb 0.0949683 -54.0806
lclavicle -2.10712e-014 -7.95139e-015
lhumerus -50.3994 -7.75726 80.0681
lradius 51.5778
lwrist 17.0492
lhand -25.9833 6.42927
lfingers 7.12502
lthumb 0.561839 36.4083
rfemur -84.157 -2.02231 31.2436
rtibia 103.824
rfoot -10.8023 -5.19374
rtoes 30.2326
lfemur 0.214947 -2.16739 4.88305
ltibia 97.1191
lfoot -18.5191 -53.8365
ltoes 39.081
416
root 16.8165 10.4106 -28.2056 -161.903 81.1315 -159.936
lowerback 14.5505 3.90831 0.523379
upperback 1.48689 5.1371 -4.88161
thorax -6.05343 2.53702 -6.50339
lowerneck -8.88409 -12.1149 -1.00931
upperneck 4.14427 -16.8198 11.0555
head 3.72285 -7.82031 2.40918
rclavicle 7.95139e-016 -3.97569e-014
rhumerus 36.5285 15.6359 -75.3311
rradius 132.06
rwrist -39.65
rhand -26.5551 -24.0875
rfingers 7.12502
rthumb 0.00960746 -54.0673
lclavicle 7.95139e-016 -3.97569e-014
lhumerus -49.7827 -7.48892 80.1007
lradius 52.0413
lwrist 17.2307
lhand -26.6488 6.35949
lfingers 7.12502
lthumb -0.0809193 36.3392
rfemur -83.3669 -2.12019 31.106
rtibia 103.212
rfoot -10.9374 -5.05323
rtoes 29.9547
lfemur 0.576814 -1.90955 4.75811
ltibia 96.467
lfoot -19.0409 -53.4454
ltoes 38.5846
417
root 16.8219 10.4854 -28.2099 -162.326 81.2142 -160.162
lowerback 14.146 3.74966 0.588446
upperback 1.28901 4.92566 -5.00983
thorax -6.04787 2.42572 -6.61497
lowerneck -9.00822 -12.1033 -1.15517
upperneck 3.99611 -16.7642 10.8974
head 3.69135 -7.80595 2.38623
rclavicle -4.21423e-014 -1.11319e-014
rhumerus 37.0765 15.8297 -75.0849
rradius 131.803
rwrist -39.5413
rhand -26.597 -24.0355
rfingers 7.12502
rthumb -0.0308552 -54.0152
lclavicle -4.21423e-014 -1.11319e-014
lhumerus -49.1809 -7.26075 80.2362
lradius 52.6207
lwrist 17.7333
lhand -27.3615 6.33351
lfingers 7.12502
lthumb -0.76923 36.3119
rfemur -82.5677 -2.17244 30.9306
rtibia 102.606
rfoot -10.8349 -4.88787
rtoes 29.5599
lfemur 0.911922 -1.65784 4.65092
ltibia 95.9449
lfoot -19.6883 -52.8125
ltoes 37.7456
